<svg xmlns="http://www.w3.org/2000/svg" width="200" height="200" viewBox="0 0 200 200" role="img" aria-labelledby="appkit-title appkit-desc">
  <title id="appkit-title">AppKit</title>
  <desc id="appkit-desc">A hexagonal product-surface console with typed DTO tiles, bridge rails, and a no-bypass boundary.</desc>
  <defs>
    <clipPath id="appkit-hex">
      <path d="M100 4 L183 52 L183 148 L100 196 L17 148 L17 52 Z"/>
    </clipPath>
    <linearGradient id="appkit-bg" x1="22" y1="20" x2="178" y2="186" gradientUnits="userSpaceOnUse">
      <stop offset="0" stop-color="#10303a"/>
      <stop offset="0.55" stop-color="#102035"/>
      <stop offset="1" stop-color="#091017"/>
    </linearGradient>
    <linearGradient id="appkit-panel" x1="48" y1="60" x2="152" y2="142" gradientUnits="userSpaceOnUse">
      <stop offset="0" stop-color="#e8fff8"/>
      <stop offset="1" stop-color="#61d7ff"/>
    </linearGradient>
    <filter id="appkit-shadow" x="-20%" y="-20%" width="140%" height="140%">
      <feDropShadow dx="0" dy="8" stdDeviation="6" flood-color="#000000" flood-opacity="0.35"/>
    </filter>
  </defs>
  <g clip-path="url(#appkit-hex)">
    <path d="M100 4 L183 52 L183 148 L100 196 L17 148 L17 52 Z" fill="url(#appkit-bg)"/>
    <path d="M32 60 L100 20 L168 60" fill="none" stroke="#2ad1c9" stroke-width="2" opacity="0.35"/>
    <path d="M32 140 L100 180 L168 140" fill="none" stroke="#86f1ff" stroke-width="2" opacity="0.18"/>
    <g stroke="#26586c" stroke-width="1.4" opacity="0.45">
      <path d="M45 74 H155"/>
      <path d="M41 98 H159"/>
      <path d="M45 122 H155"/>
      <path d="M66 49 V151"/>
      <path d="M100 34 V166"/>
      <path d="M134 49 V151"/>
    </g>
    <g filter="url(#appkit-shadow)">
      <rect x="52" y="66" width="96" height="68" rx="9" fill="#08151d" stroke="#81ebff" stroke-width="2.5"/>
      <rect x="60" y="75" width="80" height="12" rx="4" fill="url(#appkit-panel)" opacity="0.9"/>
      <rect x="60" y="96" width="23" height="24" rx="5" fill="#123a4a" stroke="#69f5ce" stroke-width="1.8"/>
      <rect x="88.5" y="96" width="23" height="24" rx="5" fill="#123a4a" stroke="#ffd166" stroke-width="1.8"/>
      <rect x="117" y="96" width="23" height="24" rx="5" fill="#123a4a" stroke="#ff8fa3" stroke-width="1.8"/>
      <path d="M67 108 H76 M94 108 H105 M124 108 H134" stroke="#dffcff" stroke-width="2" stroke-linecap="round"/>
    </g>
    <g fill="none" stroke-linecap="round" stroke-linejoin="round">
      <path d="M36 96 C47 88 48 79 58 78" stroke="#69f5ce" stroke-width="4"/>
      <path d="M164 96 C153 88 152 79 142 78" stroke="#69f5ce" stroke-width="4"/>
      <path d="M40 121 C55 131 73 139 95 139 C117 139 139 131 160 119" stroke="#ffd166" stroke-width="3"/>
      <path d="M80 144 L100 158 L120 144" stroke="#86f1ff" stroke-width="4"/>
    </g>
    <g fill="#0b1a22" stroke="#e8fff8" stroke-width="2">
      <path d="M34 88 L47 80 L60 88 L60 104 L47 112 L34 104 Z"/>
      <path d="M140 88 L153 80 L166 88 L166 104 L153 112 L140 104 Z"/>
      <path d="M87 139 L100 131 L113 139 L113 154 L100 162 L87 154 Z"/>
    </g>
    <g stroke="#e8fff8" stroke-width="2" stroke-linecap="round">
      <path d="M42 94 H52"/>
      <path d="M148 94 H158"/>
      <path d="M96 147 H104"/>
    </g>
    <path d="M100 4 L183 52 L183 148 L100 196 L17 148 L17 52 Z" fill="none" stroke="#94f6ff" stroke-width="4"/>
  </g>
</svg>
